<?xml version="1.0" encoding="UTF-8" standalone="no"?>
<svg xmlns="http://www.w3.org/2000/svg" height="512" width="512" version="1.1" viewBox="0 0 135.46666 135.46666">
 <defs>
  <linearGradient id="d" x1="405.9" gradientUnits="userSpaceOnUse" x2="397.9" gradientTransform="matrix(.4201 0 0 .4201 -112.9 -26.2)" y1="154" y2="208.2">
   <stop stop-color="#a1873d" offset="0"/>
   <stop stop-color="#933d28" offset="1"/>
  </linearGradient>
  <linearGradient id="c" x1="418.8" gradientUnits="userSpaceOnUse" y1="148.8" gradientTransform="matrix(.4201 0 0 .4201 -166.3 -29.64)" x2="306.9" y2="260.8">
   <stop stop-color="#ed3f31" offset="0"/>
   <stop stop-color="#d9292d" offset="1"/>
  </linearGradient>
  <linearGradient id="b" y2="229.9" gradientUnits="userSpaceOnUse" y1="15.32" gradientTransform="matrix(.6332 0 0 .6332 -2.074 -5.762)" x2="2.488" x1="162.9">
   <stop stop-color="#333" offset="0"/>
   <stop offset="1"/>
  </linearGradient>
  <linearGradient id="a" y2="8.859" gradientUnits="userSpaceOnUse" y1="223.3" gradientTransform="matrix(.6332 0 0 .6332 -2.074 -5.762)" x2="217.5" x1="3.041">
   <stop stop-color="#f6f6f6" offset="0"/>
   <stop stop-color="#fefefe" offset="1"/>
  </linearGradient>
 </defs>
 <g stroke-width=".6332">
  <rect style="color-rendering:auto;color:#000000;isolation:auto;mix-blend-mode:normal;paint-order:stroke fill markers;shape-rendering:auto;solid-color:#000000;image-rendering:auto" ry=".5576" height="135.8" width="135.8" y="-.1521" x="-.1487" fill="url(#a)"/>
  <rect style="color-rendering:auto;color:#000000;isolation:auto;mix-blend-mode:normal;paint-order:stroke fill markers;shape-rendering:auto;solid-color:#000000;image-rendering:auto" ry="1.698" height="112" width="102.5" y="13.43" x="17.76" fill="#dcdcdc"/>
  <rect opacity=".1" style="color-rendering:auto;color:#000000;isolation:auto;mix-blend-mode:normal;paint-order:stroke fill markers;shape-rendering:auto;solid-color:#000000;image-rendering:auto" ry=".5576" height="135.8" width="38.8" y="-.1527" x="49.68" fill="#1f1f1f"/>
 </g>
 <g stroke-width=".6332" fill="#333">
  <rect style="color-rendering:auto;color:#000000;isolation:auto;mix-blend-mode:normal;paint-order:stroke fill markers;shape-rendering:auto;solid-color:#000000;image-rendering:auto" ry=".6845" height="5.932" width="49.75" y="42.46" x="61.31"/>
  <rect style="color-rendering:auto;color:#000000;isolation:auto;mix-blend-mode:normal;paint-order:stroke fill markers;shape-rendering:auto;solid-color:#000000;image-rendering:auto" ry=".6845" height="5.932" width="49.75" y="74.28" x="61.31"/>
  <rect style="color-rendering:auto;color:#000000;isolation:auto;mix-blend-mode:normal;paint-order:stroke fill markers;shape-rendering:auto;solid-color:#000000;image-rendering:auto" ry=".6845" height="5.932" width="49.75" y="26.56" x="61.31"/>
 </g>
 <g stroke-width=".6332">
  <path style="color-rendering:auto;color:#000000;isolation:auto;mix-blend-mode:normal;paint-order:stroke fill markers;shape-rendering:auto;solid-color:#000000;image-rendering:auto" fill="url(#b)" d="m15.64 13.43 68.64-53.62c0.2008-0.1567 0.4598 0.205 0.4598 0.4598v214.9c0 0.2547-0.2542 0.6102-0.4598 0.4598l-68.71-50.3c-0.2055-0.1504-0.4598-0.205-0.4598-0.4598v-111c0-0.2547 0.259-0.3031 0.4598-0.4598z"/>
  <rect style="color-rendering:auto;color:#000000;isolation:auto;mix-blend-mode:normal;paint-order:stroke fill markers;shape-rendering:auto;solid-color:#000000;image-rendering:auto" ry=".6845" height="5.932" width="49.75" y="58.38" x="61.31" fill="#333"/>
  <rect style="color-rendering:auto;color:#000000;isolation:auto;mix-blend-mode:normal;paint-order:stroke fill markers;shape-rendering:auto;solid-color:#000000;image-rendering:auto" ry=".6845" height="5.932" width="49.75" y="90.17" x="50.71" fill="#333"/>
 </g>
 <g stroke-width=".4201">
  <path style="color-rendering:auto;color:#000000;isolation:auto;mix-blend-mode:normal;paint-order:stroke fill markers;shape-rendering:auto;solid-color:#000000;image-rendering:auto" d="m82.02 5.174-65.98 31.15v59.87l65.98 33.43z" fill="url(#c)"/>
  <path style="color-rendering:auto;color:#000000;isolation:auto;mix-blend-mode:normal;paint-order:stroke fill markers;shape-rendering:auto;solid-color:#000000;image-rendering:auto" fill="#f89b0f" d="m48.57 30.43c3.754 0.0089 3.854 8.01 4.132 9.574 0.2377 1.338-1.149 2.786-2.203 4.664-1.436 2.559-1.886 4.841-2.932 4.932v-0.0048c-0.2794 0.1712-0.6105-1.179-1.259-0.9885-0.6328 0.1854-1.998 0.585-2.58 0.5764-0.5681-0.0084-0.9853-0.5852-1.575-1.611-0.5744-1-0.8346 0.1156-1.388-1.371-0.5396-1.449-0.04189-4.008 0.2112-4.467 0.2561-0.4635 0.4284 1.581 0.6896 0.6077 0.2613-0.9695 0.0082-8.169 4.509-11.06 0.07877-0.05067 0.159-0.1001 0.241-0.1487 0.827-0.4896 1.539-0.7022 2.154-0.7004z"/>
  <path style="color-rendering:auto;color:#000000;isolation:auto;mix-blend-mode:normal;paint-order:stroke fill markers;shape-rendering:auto;solid-color:#000000;image-rendering:auto" fill="#f89b0f" d="m49.45 56.21c0.4381 0.0013 0.9087 0.1967 1.138 0.9194l0.0034-0.0019c1.292 3.753-6.19 8.321-6.19 8.321s13.84 4.467 15.7 12.42c1.986 8.46-16.04 5.516-16.04 5.516s12.58 8.884 14.01 14.98c1.511 6.402-20.28-1.983-20.75-3.528-0.4581-1.508 12.4 1.624 12.4 1.624s-1.074-1.816-2.86-3.704c-3.337-3.529-7.713-6.605-8.371-9.72-0.8802-4.135 15.24-4.104 16.17-6.227 1.113-2.536-5.063-6.056-6.655-6.681-1.497-0.5888-4.575-1.084-5.091-1.151-0.5035-0.06541-1.864-1.51-0.9961-4.351 0.9036-2.956 6.028-6.529 6.028-6.529l0.5182-1.63s0.3023-0.1714 0.6864-0.2382v-0.000222c0.09429-0.0164 0.1935-0.02628 0.2946-0.02603z"/>
  <path opacity=".1" style="color-rendering:auto;color:#000000;isolation:auto;mix-blend-mode:normal;paint-order:stroke fill markers;shape-rendering:auto;solid-color:#000000;image-rendering:auto" d="m16.03 36.32 65.29-31.15 0.19 122.9-65.48-31.93z" fill="url(#d)"/>
 </g>
</svg>
